<!DOCTYPE svg PUBLIC "-//W3C//DTD SVG 1.1//EN" "http://www.w3.org/Graphics/SVG/1.1/DTD/svg11.dtd">
<!-- Uploaded to: SVG Repo, www.svgrepo.com, Transformed by: SVG Repo Mixer Tools -->
<svg fill="#373737" version="1.1" id="Capa_1" xmlns="http://www.w3.org/2000/svg" xmlns:xlink="http://www.w3.org/1999/xlink" width="800px" height="800px" viewBox="0 0 32.402 32.402" xml:space="preserve">
<g id="SVGRepo_bgCarrier" stroke-width="0"/>
<g id="SVGRepo_tracerCarrier" stroke-linecap="round" stroke-linejoin="round"/>
<g id="SVGRepo_iconCarrier"> <g> <path d="M13.154,12.831c-0.176,0.266-0.401,0.479-0.677,0.64c-0.275,0.162-0.581,0.276-0.919,0.343 c-0.336,0.066-0.681,0.095-1.032,0.085v1.78h2.378v6.095h2.563v-9.926H13.46C13.432,12.237,13.33,12.564,13.154,12.831z"/> <path d="M20,14.532c-0.068-0.09-0.159-0.174-0.273-0.25c-0.115-0.077-0.261-0.133-0.437-0.17c-0.131-0.026-0.272-0.054-0.427-0.08 c-0.152-0.027-0.293-0.058-0.422-0.092c-0.129-0.034-0.235-0.078-0.321-0.132c-0.085-0.054-0.128-0.122-0.128-0.202 c0-0.059,0.017-0.106,0.051-0.143c0.033-0.036,0.075-0.063,0.125-0.081c0.049-0.018,0.104-0.029,0.158-0.034 c0.057-0.004,0.109-0.007,0.158-0.007c0.154,0,0.274,0.029,0.365,0.088c0.1,0.063,0.148,0.165,0.148,0.305h1.062 c-0.01-0.229-0.063-0.418-0.158-0.564c-0.098-0.146-0.223-0.262-0.377-0.345c-0.152-0.084-0.322-0.142-0.51-0.176 c-0.188-0.034-0.377-0.051-0.57-0.051c-0.172,0-0.353,0.017-0.541,0.051c-0.189,0.034-0.363,0.092-0.521,0.172 c-0.158,0.081-0.287,0.19-0.39,0.328c-0.101,0.138-0.151,0.312-0.151,0.523c0,0.239,0.051,0.425,0.151,0.555 c0.103,0.131,0.231,0.233,0.394,0.308c0.159,0.075,0.336,0.13,0.526,0.166s0.377,0.076,0.558,0.121 c0.051,0.014,0.107,0.027,0.174,0.041c0.063,0.014,0.125,0.034,0.183,0.061c0.056,0.027,0.104,0.063,0.146,0.104 c0.041,0.044,0.062,0.099,0.062,0.166c0,0.067-0.019,0.125-0.056,0.173c-0.035,0.047-0.08,0.086-0.135,0.115 c-0.055,0.029-0.113,0.051-0.176,0.062c-0.062,0.014-0.121,0.021-0.176,0.021c-0.081,0-0.159-0.011-0.233-0.03 c-0.073-0.021-0.139-0.051-0.192-0.092c-0.059-0.045-0.104-0.099-0.139-0.162c-0.033-0.063-0.051-0.14-0.051-0.229h-1.096 c0.01,0.243,0.064,0.445,0.166,0.608c0.102,0.162,0.233,0.291,0.393,0.389c0.16,0.097,0.342,0.165,0.544,0.203 c0.203,0.037,0.407,0.058,0.615,0.058c0.198,0,0.397-0.021,0.599-0.063c0.2-0.043,0.381-0.112,0.541-0.21 c0.159-0.097,0.291-0.226,0.393-0.386c0.101-0.159,0.15-0.356,0.15-0.591c0-0.072-0.013-0.155-0.039-0.25 C20.115,14.715,20.066,14.622,20,14.532z"/> <path d="M22.859,13.443V12.7h-0.711v-1.062H21V12.7h-0.581v0.743H21v1.563c0,0.238,0.018,0.437,0.055,0.594 c0.035,0.158,0.1,0.284,0.192,0.379c0.092,0.095,0.218,0.162,0.378,0.203c0.16,0.041,0.361,0.061,0.605,0.061 c0.104,0,0.209-0.004,0.313-0.015c0.104-0.008,0.211-0.016,0.313-0.02v-0.846c-0.049,0-0.1,0.003-0.147,0.007 c-0.05,0.005-0.101,0.007-0.149,0.007c-0.125,0-0.227-0.021-0.301-0.064c-0.074-0.043-0.111-0.134-0.111-0.273v-1.596 L22.859,13.443L22.859,13.443z"/> <path d="M32.376,15.59c-0.028-0.366-0.021-0.857-0.103-1.342c-0.072-0.486-0.143-0.973-0.213-1.334 c-0.09-0.357-0.148-0.596-0.148-0.596l-3.271,0.816c-0.328-1.2-0.824-2.329-1.463-3.365l2.951-1.765c0,0-0.494-0.858-1.113-1.631 c-0.285-0.404-0.637-0.755-0.881-1.032c-0.252-0.272-0.419-0.455-0.419-0.455s-0.181-0.165-0.45-0.414 c-0.277-0.243-0.623-0.593-1.023-0.875c-0.396-0.29-0.776-0.601-1.096-0.788c-0.312-0.192-0.522-0.32-0.522-0.32L22.84,5.46 c-1.037-0.629-2.164-1.115-3.363-1.437l0.838-3.324c0,0-0.24-0.061-0.602-0.15c-0.363-0.076-0.854-0.143-1.343-0.217 c-0.488-0.086-0.983-0.075-1.353-0.104c-0.37-0.016-0.616-0.027-0.616-0.027s-0.076,0.003-0.201,0.009 C16.076,0.204,16,0.201,16,0.201s-0.246,0.011-0.615,0.026c-0.369,0.029-0.864,0.019-1.353,0.104 c-0.489,0.074-0.979,0.141-1.343,0.217c-0.36,0.09-0.602,0.15-0.602,0.15l0.838,3.324C11.727,4.345,10.6,4.831,9.563,5.46 L7.779,2.489c0,0-0.21,0.128-0.523,0.32C6.938,2.997,6.557,3.307,6.161,3.597C5.76,3.88,5.414,4.229,5.137,4.472 c-0.27,0.249-0.45,0.414-0.45,0.414S4.52,5.069,4.268,5.342C4.024,5.619,3.673,5.97,3.388,6.374 c-0.62,0.772-1.114,1.631-1.114,1.631L5.225,9.77c-0.639,1.036-1.134,2.165-1.463,3.365L0.49,12.318c0,0-0.059,0.238-0.148,0.596 c-0.071,0.361-0.141,0.848-0.213,1.334c-0.083,0.484-0.074,0.976-0.103,1.342C0.011,15.957,0,16.201,0,16.201 s0.011,0.246,0.026,0.616c0.029,0.368,0.019,0.862,0.104,1.352c0.074,0.489,0.142,0.979,0.217,1.343 c0.09,0.36,0.15,0.603,0.15,0.603l3.1-0.781c0.272,1.245,0.723,2.425,1.325,3.509l-2.635,1.582c0,0,0.128,0.209,0.32,0.522 c0.187,0.317,0.498,0.698,0.788,1.095c0.283,0.402,0.633,0.748,0.875,1.024c0.249,0.27,0.415,0.45,0.415,0.45 s0.181,0.166,0.454,0.418c0.277,0.244,0.627,0.596,1.032,0.881c0.772,0.619,1.631,1.113,1.631,1.113l1.47-2.457 c1.072,0.689,2.252,1.225,3.51,1.575l-0.666,2.665c0,0,0.238,0.061,0.596,0.148c0.361,0.07,0.848,0.141,1.334,0.213 c0.484,0.083,0.976,0.074,1.342,0.104C15.756,32.19,16,32.201,16,32.201s0.076-0.003,0.201-0.009 c0.125,0.006,0.201,0.009,0.201,0.009s0.244-0.011,0.612-0.025c0.365-0.029,0.856-0.021,1.342-0.104 c0.485-0.072,0.973-0.143,1.334-0.213c0.356-0.09,0.596-0.148,0.596-0.148l-0.666-2.665c1.258-0.352,2.438-0.886,3.51-1.575 l1.471,2.457c0,0,0.857-0.494,1.631-1.113c0.404-0.285,0.754-0.637,1.031-0.881c0.273-0.252,0.454-0.418,0.454-0.418 s0.166-0.182,0.415-0.45c0.242-0.276,0.592-0.622,0.875-1.024c0.29-0.396,0.602-0.775,0.788-1.095 c0.192-0.313,0.319-0.522,0.319-0.522l-2.635-1.582c0.604-1.084,1.054-2.264,1.326-3.509l3.1,0.781c0,0,0.061-0.241,0.15-0.603 c0.074-0.362,0.143-0.854,0.217-1.343c0.086-0.487,0.074-0.981,0.104-1.352c0.018-0.37,0.027-0.616,0.027-0.616 S32.393,15.957,32.376,15.59z M3.389,18.081L1.43,18.37c0,0-0.02-0.134-0.051-0.337c-0.037-0.202-0.063-0.473-0.07-0.744 c-0.027-0.544-0.053-1.088-0.053-1.088s0.025-0.537,0.051-1.074c0.01-0.269,0.032-0.536,0.069-0.735 c0.03-0.2,0.05-0.333,0.05-0.333L3.49,14.36c-0.122,0.715-0.199,1.444-0.199,2.192C3.291,17.07,3.329,17.578,3.389,18.081z M25.191,4.38c0,0,0.106,0.081,0.27,0.202c0.163,0.119,0.377,0.282,0.572,0.468c0.396,0.363,0.795,0.726,0.795,0.726 s0.367,0.402,0.734,0.805c0.188,0.197,0.352,0.416,0.473,0.58c0.123,0.164,0.205,0.272,0.205,0.272l-1.766,1.31 c-0.742-0.98-1.619-1.851-2.604-2.587L25.191,4.38z M14.168,1.58c0.201-0.036,0.473-0.063,0.744-0.07 C15.457,1.483,16,1.457,16,1.457s0.086,0.004,0.201,0.01c0.115-0.006,0.201-0.01,0.201-0.01s0.543,0.026,1.088,0.053 c0.271,0.008,0.543,0.034,0.744,0.07c0.201,0.031,0.336,0.051,0.336,0.051L18.256,3.76c-0.67-0.111-1.354-0.181-2.055-0.186 C15.5,3.579,14.816,3.648,14.146,3.76l-0.315-2.129C13.831,1.631,13.966,1.611,14.168,1.58z M4.162,7.432 c0,0,0.082-0.108,0.205-0.272C4.488,6.996,4.651,6.777,4.84,6.58c0.367-0.402,0.734-0.805,0.734-0.805s0.397-0.362,0.795-0.726 c0.195-0.185,0.409-0.348,0.572-0.467c0.162-0.121,0.27-0.202,0.27-0.202l1.321,1.775C7.547,6.891,6.67,7.762,5.928,8.742 L4.162,7.432z M7.232,28.039c0,0-0.109-0.082-0.273-0.205c-0.164-0.121-0.383-0.283-0.58-0.473 c-0.402-0.367-0.805-0.734-0.805-0.734s-0.363-0.396-0.726-0.795c-0.187-0.195-0.349-0.408-0.468-0.572 c-0.121-0.162-0.202-0.27-0.202-0.27l1.425-1.061c0.729,1.053,1.611,1.987,2.611,2.783L7.232,28.039z M18.213,30.825 c-0.199,0.037-0.468,0.06-0.736,0.069c-0.537,0.024-1.074,0.051-1.074,0.051s-0.086-0.004-0.201-0.01 C16.086,30.941,16,30.945,16,30.945s-0.537-0.025-1.074-0.051c-0.269-0.01-0.536-0.032-0.736-0.069 c-0.199-0.03-0.332-0.05-0.332-0.05l0.21-1.44c0.695,0.119,1.406,0.192,2.134,0.197c0.728-0.005,1.438-0.078,2.134-0.197l0.21,1.44 C18.545,30.775,18.412,30.795,18.213,30.825z M16.201,25.778c-5.056-0.039-9.156-4.161-9.156-9.226 c0-5.063,4.101-9.187,9.156-9.226c5.056,0.039,9.156,4.161,9.156,9.226S21.257,25.739,16.201,25.778z M28.225,24.99 c0,0-0.082,0.107-0.203,0.27c-0.119,0.164-0.28,0.377-0.467,0.572c-0.363,0.396-0.727,0.795-0.727,0.795s-0.402,0.367-0.805,0.734 c-0.197,0.188-0.416,0.352-0.58,0.473c-0.164,0.123-0.273,0.205-0.273,0.205l-0.982-1.324c1-0.797,1.883-1.731,2.611-2.785 L28.225,24.99z M31.094,17.289c-0.008,0.271-0.033,0.542-0.07,0.744c-0.03,0.203-0.051,0.337-0.051,0.337l-1.959-0.289 c0.061-0.503,0.098-1.011,0.098-1.528c0-0.749-0.076-1.479-0.198-2.192l2.063-0.301c0,0,0.021,0.133,0.051,0.333 c0.037,0.199,0.06,0.467,0.068,0.735c0.025,0.537,0.051,1.074,0.051,1.074S31.12,16.745,31.094,17.289z"/> </g> </g>
</svg>